<svg xmlns="http://www.w3.org/2000/svg" width="1120" height="430" viewBox="0 0 1120 430" role="img" aria-label="FK 검증 락 제거 전후 Hikari 비교">
<style>text{font-family:-apple-system,BlinkMacSystemFont,'Segoe UI','Noto Sans KR',sans-serif}.title{font-size:22px;font-weight:700;fill:#111827}.subtitle{font-size:13px;fill:#6b7280}.axis{font-size:11px;fill:#6b7280}.legend{font-size:12px;fill:#374151}.value{font-size:12px;font-weight:600;fill:#111827}.note{font-size:11px;fill:#6b7280}</style>
<rect width="1120" height="430" fill="white" rx="12"/>
<text x="28" y="34" class="title">FK 검증 락 제거 전후 Hikari 비교</text>
<text x="28" y="57" class="subtitle">Datadog 1초 rollup · 동일 경매 행을 12초 잠근 상태에서 비동기 요청 40건</text>
<rect x="36" y="78" width="508" height="294" rx="8" fill="#f9fafb" stroke="#e5e7eb"/>
<text x="50" y="101" class="value">FK 존재: 202 10건 / 500 30건</text>
<line x1="84" y1="325.0" x2="522" y2="325.0" stroke="#d1d5db" stroke-dasharray="3 4"/>
<text x="76" y="329.0" text-anchor="end" class="axis">0</text>
<line x1="84" y1="273.8" x2="522" y2="273.8" stroke="#d1d5db" stroke-dasharray="3 4"/>
<text x="76" y="277.8" text-anchor="end" class="axis">9</text>
<line x1="84" y1="222.5" x2="522" y2="222.5" stroke="#d1d5db" stroke-dasharray="3 4"/>
<text x="76" y="226.5" text-anchor="end" class="axis">18</text>
<line x1="84" y1="171.2" x2="522" y2="171.2" stroke="#d1d5db" stroke-dasharray="3 4"/>
<text x="76" y="175.2" text-anchor="end" class="axis">27</text>
<line x1="84" y1="120.0" x2="522" y2="120.0" stroke="#d1d5db" stroke-dasharray="3 4"/>
<text x="76" y="124.0" text-anchor="end" class="axis">36</text>
<text x="84.0" y="343" text-anchor="middle" class="axis">20:48:00</text>
<text x="193.5" y="343" text-anchor="middle" class="axis">20:48:04</text>
<text x="303.0" y="343" text-anchor="middle" class="axis">20:48:09</text>
<text x="412.5" y="343" text-anchor="middle" class="axis">20:48:13</text>
<text x="522.0" y="343" text-anchor="middle" class="axis">20:48:18</text>
<text x="84" y="112" class="axis">connections</text>
<polyline points="84.0,268.1 327.3,293.7" fill="none" stroke="#2563eb" stroke-width="2.5" stroke-linejoin="round" stroke-linecap="round"/>
<polyline points="84.0,148.5 327.3,236.7" fill="none" stroke="#dc2626" stroke-width="2.5" stroke-linejoin="round" stroke-linecap="round"/>
<polyline points="84.0,325.0 327.3,299.4" fill="none" stroke="#16a34a" stroke-width="2.5" stroke-linejoin="round" stroke-linecap="round"/>
<rect x="576" y="78" width="508" height="294" rx="8" fill="#f9fafb" stroke="#e5e7eb"/>
<text x="590" y="101" class="value">FK 제거: 202 40건 / 500 0건</text>
<line x1="624" y1="325.0" x2="1062" y2="325.0" stroke="#d1d5db" stroke-dasharray="3 4"/>
<text x="616" y="329.0" text-anchor="end" class="axis">0</text>
<line x1="624" y1="273.8" x2="1062" y2="273.8" stroke="#d1d5db" stroke-dasharray="3 4"/>
<text x="616" y="277.8" text-anchor="end" class="axis">9</text>
<line x1="624" y1="222.5" x2="1062" y2="222.5" stroke="#d1d5db" stroke-dasharray="3 4"/>
<text x="616" y="226.5" text-anchor="end" class="axis">18</text>
<line x1="624" y1="171.2" x2="1062" y2="171.2" stroke="#d1d5db" stroke-dasharray="3 4"/>
<text x="616" y="175.2" text-anchor="end" class="axis">27</text>
<line x1="624" y1="120.0" x2="1062" y2="120.0" stroke="#d1d5db" stroke-dasharray="3 4"/>
<text x="616" y="124.0" text-anchor="end" class="axis">36</text>
<text x="624.0" y="343" text-anchor="middle" class="axis">20:57:48</text>
<text x="733.5" y="343" text-anchor="middle" class="axis">20:57:52</text>
<text x="843.0" y="343" text-anchor="middle" class="axis">20:57:56</text>
<text x="952.5" y="343" text-anchor="middle" class="axis">20:58:00</text>
<text x="1062.0" y="343" text-anchor="middle" class="axis">20:58:05</text>
<text x="624" y="112" class="axis">connections</text>
<polyline points="675.5,319.3 933.2,325.0" fill="none" stroke="#2563eb" stroke-width="2.5" stroke-linejoin="round" stroke-linecap="round"/>
<polyline points="675.5,325.0 933.2,325.0" fill="none" stroke="#dc2626" stroke-width="2.5" stroke-linejoin="round" stroke-linecap="round"/>
<polyline points="675.5,279.4 933.2,273.8" fill="none" stroke="#16a34a" stroke-width="2.5" stroke-linejoin="round" stroke-linecap="round"/>
<circle cx="305" cy="401" r="5" fill="#2563eb"/>
<text x="315" y="405" class="legend">active</text>
<circle cx="405" cy="401" r="5" fill="#dc2626"/>
<text x="415" y="405" class="legend">pending</text>
<circle cx="505" cy="401" r="5" fill="#16a34a"/>
<text x="515" y="405" class="legend">idle</text>
</svg>
