<svg xmlns="http://www.w3.org/2000/svg" width="1120" height="470" viewBox="0 0 1120 470" role="img" aria-label="HTTP 응답과 비동기 최종 실패 확정 레이턴시">
<style>text{font-family:-apple-system,BlinkMacSystemFont,'Segoe UI','Noto Sans KR',sans-serif}.title{font-size:22px;font-weight:700;fill:#111827}.subtitle{font-size:13px;fill:#6b7280}.axis{font-size:11px;fill:#6b7280}.legend{font-size:12px;fill:#374151}.value{font-size:12px;font-weight:600;fill:#111827}.note{font-size:11px;fill:#6b7280}</style>
<rect width="1120" height="470" fill="white" rx="12"/>
<text x="28" y="34" class="title">HTTP 응답과 비동기 최종 실패 확정 레이턴시</text>
<text x="28" y="57" class="subtitle">부하 생성기 HTTP 측정 + DB bid_request.created_at → processed_at · p95 기준</text>
<rect x="36" y="78" width="1048" height="330" rx="8" fill="#f9fafb" stroke="#e5e7eb"/>
<text x="50" y="101" class="value">비동기는 HTTP 접수를 보호하지만 최종 실패 결과는 큐 적체만큼 늦어진다</text>
<line x1="100" y1="350.0" x2="1030" y2="350.0" stroke="#d1d5db" stroke-dasharray="3 4"/>
<text x="92" y="354.0" text-anchor="end" class="axis">0</text>
<line x1="100" y1="293.8" x2="1030" y2="293.8" stroke="#d1d5db" stroke-dasharray="3 4"/>
<text x="92" y="297.8" text-anchor="end" class="axis">6</text>
<line x1="100" y1="237.5" x2="1030" y2="237.5" stroke="#d1d5db" stroke-dasharray="3 4"/>
<text x="92" y="241.5" text-anchor="end" class="axis">12</text>
<line x1="100" y1="181.2" x2="1030" y2="181.2" stroke="#d1d5db" stroke-dasharray="3 4"/>
<text x="92" y="185.2" text-anchor="end" class="axis">18</text>
<line x1="100" y1="125.0" x2="1030" y2="125.0" stroke="#d1d5db" stroke-dasharray="3 4"/>
<text x="92" y="129.0" text-anchor="end" class="axis">24</text>
<rect x="175.0" y="330.9" width="48.0" height="19.1" rx="4" fill="#ea580c"/>
<text x="199.0" y="324.9" text-anchor="middle" class="value">2.04</text>
<rect x="231.0" y="339.0" width="48.0" height="11.0" rx="4" fill="#2563eb"/>
<text x="255.0" y="333.0" text-anchor="middle" class="value">1.18</text>
<rect x="287.0" y="311.4" width="48.0" height="38.6" rx="4" fill="#7c3aed"/>
<text x="311.0" y="305.4" text-anchor="middle" class="value">4.12</text>
<text x="255.0" y="372" text-anchor="middle" class="axis">Burst 300</text>
<rect x="485.0" y="336.9" width="48.0" height="13.1" rx="4" fill="#ea580c"/>
<text x="509.0" y="330.9" text-anchor="middle" class="value">1.40</text>
<rect x="541.0" y="337.7" width="48.0" height="12.3" rx="4" fill="#2563eb"/>
<text x="565.0" y="331.7" text-anchor="middle" class="value">1.31</text>
<rect x="597.0" y="142.3" width="48.0" height="207.7" rx="4" fill="#7c3aed"/>
<text x="621.0" y="136.3" text-anchor="middle" class="value">22.16</text>
<text x="565.0" y="372" text-anchor="middle" class="axis">Fixed 200 VU</text>
<rect x="795.0" y="337.2" width="48.0" height="12.8" rx="4" fill="#ea580c"/>
<text x="819.0" y="331.2" text-anchor="middle" class="value">1.36</text>
<rect x="851.0" y="337.0" width="48.0" height="13.0" rx="4" fill="#2563eb"/>
<text x="875.0" y="331.0" text-anchor="middle" class="value">1.38</text>
<rect x="907.0" y="308.3" width="48.0" height="41.7" rx="4" fill="#7c3aed"/>
<text x="931.0" y="302.3" text-anchor="middle" class="value">4.45</text>
<text x="875.0" y="372" text-anchor="middle" class="axis">Ramp 합계</text>
<text x="100" y="117" class="axis">seconds (p95)</text>
<circle cx="225" cy="436" r="5" fill="#ea580c"/>
<text x="235" y="440" class="legend">동기 HTTP</text>
<circle cx="325" cy="436" r="5" fill="#2563eb"/>
<text x="335" y="440" class="legend">비동기 HTTP</text>
<circle cx="425" cy="436" r="5" fill="#7c3aed"/>
<text x="435" y="440" class="legend">비동기 최종 처리</text>
</svg>
